{
  "accessors": [
    {
      "bufferView": 2,
      "componentType": 5126,
      "count": 65532,
      "max": [
        236.6345672607422,
        284.9472961425781,
        1194.86376953125
      ],
      "min": [
        -277.8402099609375,
        -270.0443420410156,
        5.12832498550415
      ],
      "type": "VEC3"
    },
    {
      "bufferView": 2,
      "byteOffset": 786384,
      "componentType": 5126,
      "count": 65532,
      "max": [
        0.9999980926513672,
        0.9999967813491821,
        0.9999565482139587
      ],
      "min": [
        -1.0,
        -0.9999871253967285,
        -0.999980092048645
      ],
      "type": "VEC3"
    },
    {
      "bufferView": 1,
      "componentType": 5126,
      "count": 65532,
      "max": [
        0.9951069951057434,
        0.9927269816398621
      ],
      "min": [
        0.0019859999883919954,
        0.0019920000340789557
      ],
      "type": "VEC2"
    },
    {
      "bufferView": 0,
      "componentType": 5125,
      "count": 65532,
      "type": "SCALAR"
    },
    {
      "bufferView": 2,
      "byteOffset": 1572768,
      "componentType": 5126,
      "count": 65532,
      "max": [
        236.6345672607422,
        284.9472961425781,
        1194.86376953125
      ],
      "min": [
        -276.86041259765625,
        -270.0443420410156,
        6.371899127960205
      ],
      "type": "VEC3"
    },
    {
      "bufferView": 2,
      "byteOffset": 2359152,
      "componentType": 5126,
      "count": 65532,
      "max": [
        0.9999707341194153,
        0.9999887347221375,
        0.9999234676361084
      ],
      "min": [
        -0.999974250793457,
        -0.9999884963035583,
        -0.9999847412109375
      ],
      "type": "VEC3"
    },
    {
      "bufferView": 1,
      "byteOffset": 524256,
      "componentType": 5126,
      "count": 65532,
      "max": [
        0.9951069951057434,
        0.9980080127716064
      ],
      "min": [
        0.0019859999883919954,
        0.0019920000340789557
      ],
      "type": "VEC2"
    },
    {
      "bufferView": 0,
      "byteOffset": 262128,
      "componentType": 5125,
      "count": 65532,
      "type": "SCALAR"
    },
    {
      "bufferView": 2,
      "byteOffset": 3145536,
      "componentType": 5126,
      "count": 48930,
      "max": [
        235.0192108154297,
        281.88153076171875,
        1154.3660888671875
      ],
      "min": [
        -276.0935974121094,
        -263.9398193359375,
        37.666812896728516
      ],
      "type": "VEC3"
    },
    {
      "bufferView": 2,
      "byteOffset": 3732696,
      "componentType": 5126,
      "count": 48930,
      "max": [
        0.9999518990516663,
        0.9999876618385315,
        0.9998972415924072
      ],
      "min": [
        -0.9999776482582092,
        -0.9999719858169556,
        -0.999825119972229
      ],
      "type": "VEC3"
    },
    {
      "bufferView": 1,
      "byteOffset": 1048512,
      "componentType": 5126,
      "count": 48930,
      "max": [
        0.9951069951057434,
        0.9979979991912842
      ],
      "min": [
        0.0019859999883919954,
        0.0019920000340789557
      ],
      "type": "VEC2"
    },
    {
      "bufferView": 0,
      "byteOffset": 524256,
      "componentType": 5125,
      "count": 48930,
      "type": "SCALAR"
    }
  ],
  "asset": {
    "extras": {
      "author": "IUPUI University Library (https://sketchfab.com/iupuiul)",
      "license": "CC-BY-4.0 (http://creativecommons.org/licenses/by/4.0/)",
      "source": "https://sketchfab.com/3d-models/gothic-side-chair-preview-c479d0c19b4a494e8987b2b05638fdef",
      "title": "Gothic Side Chair - Preview"
    },
    "generator": "Sketchfab-12.68.0",
    "version": "2.0"
  },
  "bufferViews": [
    {
      "buffer": 0,
      "byteLength": 719976,
      "name": "floatBufferViews",
      "target": 34963
    },
    {
      "buffer": 0,
      "byteLength": 1439952,
      "byteOffset": 719976,
      "byteStride": 8,
      "name": "floatBufferViews",
      "target": 34962
    },
    {
      "buffer": 0,
      "byteLength": 4319856,
      "byteOffset": 2159928,
      "byteStride": 12,
      "name": "floatBufferViews",
      "target": 34962
    }
  ],
  "buffers": [
    {
      "byteLength": 6479784,
      "uri": "scene.bin"
    }
  ],
  "images": [
    {
      "uri": "textures/initialShadingGroup_baseColor.png"
    }
  ],
  "materials": [
    {
      "doubleSided": true,
      "name": "initialShadingGroup",
      "pbrMetallicRoughness": {
        "baseColorTexture": {
          "index": 0
        },
        "metallicFactor": 0.0,
        "roughnessFactor": 0.426
      }
    }
  ],
  "meshes": [
    {
      "name": "Object_0",
      "primitives": [
        {
          "attributes": {
            "NORMAL": 1,
            "POSITION": 0,
            "TEXCOORD_0": 2
          },
          "indices": 3,
          "material": 0,
          "mode": 4
        }
      ]
    },
    {
      "name": "Object_1",
      "primitives": [
        {
          "attributes": {
            "NORMAL": 5,
            "POSITION": 4,
            "TEXCOORD_0": 6
          },
          "indices": 7,
          "material": 0,
          "mode": 4
        }
      ]
    },
    {
      "name": "Object_2",
      "primitives": [
        {
          "attributes": {
            "NORMAL": 9,
            "POSITION": 8,
            "TEXCOORD_0": 10
          },
          "indices": 11,
          "material": 0,
          "mode": 4
        }
      ]
    }
  ],
  "nodes": [
    {
      "children": [
        1
      ],
      "matrix": [
        1.0,
        0.0,
        0.0,
        0.0,
        0.0,
        2.220446049250313e-16,
        -1.0,
        0.0,
        0.0,
        1.0,
        2.220446049250313e-16,
        0.0,
        0.0,
        0.0,
        0.0,
        1.0
      ],
      "name": "Sketchfab_model"
    },
    {
      "children": [
        2,
        3,
        4
      ],
      "name": "MU_HarrisonGothicSideChair_P_Geometry.obj.cleaner.materialmerger.gles"
    },
    {
      "mesh": 0,
      "name": "Object_2"
    },
    {
      "mesh": 1,
      "name": "Object_3"
    },
    {
      "mesh": 2,
      "name": "Object_4"
    }
  ],
  "samplers": [
    {
      "magFilter": 9729,
      "minFilter": 9987,
      "wrapS": 10497,
      "wrapT": 10497
    }
  ],
  "scene": 0,
  "scenes": [
    {
      "name": "Sketchfab_Scene",
      "nodes": [
        0
      ]
    }
  ],
  "textures": [
    {
      "sampler": 0,
      "source": 0
    }
  ]
}
