{
  "accessors": [
    {
      "bufferView": 2,
      "componentType": 5126,
      "count": 65532,
      "max": [
        48.11697769165039,
        80.36228942871094,
        74.19024658203125
      ],
      "min": [
        -65.730224609375,
        14.442523002624512,
        -39.656978607177734
      ],
      "type": "VEC3"
    },
    {
      "bufferView": 2,
      "byteOffset": 786384,
      "componentType": 5126,
      "count": 65532,
      "max": [
        1.0,
        1.0,
        1.0
      ],
      "min": [
        -1.0,
        -1.0,
        -1.0
      ],
      "type": "VEC3"
    },
    {
      "bufferView": 1,
      "componentType": 5126,
      "count": 65532,
      "max": [
        0.9932540059089661,
        0.9413300156593323
      ],
      "min": [
        0.06106099858880043,
        0.08558300137519836
      ],
      "type": "VEC2"
    },
    {
      "bufferView": 0,
      "componentType": 5125,
      "count": 337632,
      "type": "SCALAR"
    },
    {
      "bufferView": 2,
      "byteOffset": 1572768,
      "componentType": 5126,
      "count": 65532,
      "max": [
        -6.259911060333252,
        60.84835433959961,
        39.65796661376953
      ],
      "min": [
        -39.964534759521484,
        0.9546700119972229,
        -12.665671348571777
      ],
      "type": "VEC3"
    },
    {
      "bufferView": 2,
      "byteOffset": 2359152,
      "componentType": 5126,
      "count": 65532,
      "max": [
        0.9999998807907104,
        0.9998869299888611,
        0.9999982714653015
      ],
      "min": [
        -0.9999999403953552,
        -0.9998311996459961,
        -1.0
      ],
      "type": "VEC3"
    },
    {
      "bufferView": 1,
      "byteOffset": 524256,
      "componentType": 5126,
      "count": 65532,
      "max": [
        0.9997979998588562,
        0.9961919784545898
      ],
      "min": [
        0.011626999825239182,
        0.00031999999191612005
      ],
      "type": "VEC2"
    },
    {
      "bufferView": 0,
      "byteOffset": 1350528,
      "componentType": 5125,
      "count": 357918,
      "type": "SCALAR"
    },
    {
      "bufferView": 2,
      "byteOffset": 3145536,
      "componentType": 5126,
      "count": 65532,
      "max": [
        8.183314323425293,
        59.09647750854492,
        34.57472610473633
      ],
      "min": [
        -39.50703048706055,
        3.458859920501709,
        -11.13127326965332
      ],
      "type": "VEC3"
    },
    {
      "bufferView": 2,
      "byteOffset": 3931920,
      "componentType": 5126,
      "count": 65532,
      "max": [
        0.9999999403953552,
        0.9999880194664001,
        0.9999998807907104
      ],
      "min": [
        -1.0,
        -0.9995412230491638,
        -1.0
      ],
      "type": "VEC3"
    },
    {
      "bufferView": 1,
      "byteOffset": 1048512,
      "componentType": 5126,
      "count": 65532,
      "max": [
        0.9985669851303101,
        0.9957020282745361
      ],
      "min": [
        0.013411000370979309,
        0.0007190000033006072
      ],
      "type": "VEC2"
    },
    {
      "bufferView": 0,
      "byteOffset": 2782200,
      "componentType": 5125,
      "count": 352392,
      "type": "SCALAR"
    },
    {
      "bufferView": 2,
      "byteOffset": 4718304,
      "componentType": 5126,
      "count": 65532,
      "max": [
        9.59078598022461,
        61.04689407348633,
        33.669071197509766
      ],
      "min": [
        -16.998733520507813,
        -0.4591740071773529,
        -12.655165672302246
      ],
      "type": "VEC3"
    },
    {
      "bufferView": 2,
      "byteOffset": 5504688,
      "componentType": 5126,
      "count": 65532,
      "max": [
        1.0,
        0.9996456503868103,
        0.9999999403953552
      ],
      "min": [
        -0.9999992847442627,
        -0.9999997019767761,
        -0.9999995827674866
      ],
      "type": "VEC3"
    },
    {
      "bufferView": 1,
      "byteOffset": 1572768,
      "componentType": 5126,
      "count": 65532,
      "max": [
        0.9962980151176453,
        0.9961900115013123
      ],
      "min": [
        0.009600000455975533,
        0.00028700000257231295
      ],
      "type": "VEC2"
    },
    {
      "bufferView": 0,
      "byteOffset": 4191768,
      "componentType": 5125,
      "count": 358515,
      "type": "SCALAR"
    },
    {
      "bufferView": 2,
      "byteOffset": 6291072,
      "componentType": 5126,
      "count": 65532,
      "max": [
        18.371816635131836,
        75.63207244873047,
        73.89664459228516
      ],
      "min": [
        -53.91870880126953,
        -29.673784255981445,
        -14.815935134887695
      ],
      "type": "VEC3"
    },
    {
      "bufferView": 2,
      "byteOffset": 7077456,
      "componentType": 5126,
      "count": 65532,
      "max": [
        0.9999990463256836,
        0.9999902844429016,
        0.9999994039535522
      ],
      "min": [
        -0.9999902844429016,
        -0.9999998807907104,
        -0.9999992847442627
      ],
      "type": "VEC3"
    },
    {
      "bufferView": 1,
      "byteOffset": 2097024,
      "componentType": 5126,
      "count": 65532,
      "max": [
        0.9997220039367676,
        0.9929860234260559
      ],
      "min": [
        0.0043299999088048935,
        0.0004839999892283231
      ],
      "type": "VEC2"
    },
    {
      "bufferView": 0,
      "byteOffset": 5625828,
      "componentType": 5125,
      "count": 343137,
      "type": "SCALAR"
    },
    {
      "bufferView": 2,
      "byteOffset": 7863840,
      "componentType": 5126,
      "count": 65532,
      "max": [
        4.7264227867126465,
        75.44322967529297,
        73.47573852539063
      ],
      "min": [
        -55.568077087402344,
        24.69561767578125,
        22.99170684814453
      ],
      "type": "VEC3"
    },
    {
      "bufferView": 2,
      "byteOffset": 8650224,
      "componentType": 5126,
      "count": 65532,
      "max": [
        0.9999999403953552,
        0.9857216477394104,
        0.9999994039535522
      ],
      "min": [
        -0.9999982714653015,
        -1.0,
        -0.9999993443489075
      ],
      "type": "VEC3"
    },
    {
      "bufferView": 1,
      "byteOffset": 2621280,
      "componentType": 5126,
      "count": 65532,
      "max": [
        0.9947389960289001,
        0.9994900226593018
      ],
      "min": [
        0.005615000147372484,
        0.00796900037676096
      ],
      "type": "VEC2"
    },
    {
      "bufferView": 0,
      "byteOffset": 6998376,
      "componentType": 5125,
      "count": 360087,
      "type": "SCALAR"
    },
    {
      "bufferView": 2,
      "byteOffset": 9436608,
      "componentType": 5126,
      "count": 65532,
      "max": [
        20.778568267822266,
        69.56708526611328,
        67.34786224365234
      ],
      "min": [
        -40.86595153808594,
        32.13184356689453,
        4.336248874664307
      ],
      "type": "VEC3"
    },
    {
      "bufferView": 2,
      "byteOffset": 10222992,
      "componentType": 5126,
      "count": 65532,
      "max": [
        0.9999995827674866,
        0.9995149374008179,
        0.9999998807907104
      ],
      "min": [
        -0.9999998807907104,
        -0.9999999403953552,
        -0.9999993443489075
      ],
      "type": "VEC3"
    },
    {
      "bufferView": 1,
      "byteOffset": 3145536,
      "componentType": 5126,
      "count": 65532,
      "max": [
        0.9924299716949463,
        0.9957640171051025
      ],
      "min": [
        0.015776999294757843,
        0.00011899999663000926
      ],
      "type": "VEC2"
    },
    {
      "bufferView": 0,
      "byteOffset": 8438724,
      "componentType": 5125,
      "count": 353904,
      "type": "SCALAR"
    },
    {
      "bufferView": 2,
      "byteOffset": 11009376,
      "componentType": 5126,
      "count": 65532,
      "max": [
        -13.873071670532227,
        66.21179962158203,
        31.611888885498047
      ],
      "min": [
        -39.14239501953125,
        45.97394561767578,
        -12.049489974975586
      ],
      "type": "VEC3"
    },
    {
      "bufferView": 2,
      "byteOffset": 11795760,
      "componentType": 5126,
      "count": 65532,
      "max": [
        0.9999997615814209,
        0.9965865015983582,
        0.999997615814209
      ],
      "min": [
        -0.9999998807907104,
        -0.9999997615814209,
        -0.9999995231628418
      ],
      "type": "VEC3"
    },
    {
      "bufferView": 1,
      "byteOffset": 3669792,
      "componentType": 5126,
      "count": 65532,
      "max": [
        0.9849600195884705,
        0.9994440078735352
      ],
      "min": [
        0.0001049999991664663,
        0.013906000182032585
      ],
      "type": "VEC2"
    },
    {
      "bufferView": 0,
      "byteOffset": 9854340,
      "componentType": 5125,
      "count": 344589,
      "type": "SCALAR"
    },
    {
      "bufferView": 2,
      "byteOffset": 12582144,
      "componentType": 5126,
      "count": 65532,
      "max": [
        2.968503952026367,
        75.63256072998047,
        47.07761001586914
      ],
      "min": [
        -65.73020935058594,
        46.017425537109375,
        -27.28619956970215
      ],
      "type": "VEC3"
    },
    {
      "bufferView": 2,
      "byteOffset": 13368528,
      "componentType": 5126,
      "count": 65532,
      "max": [
        0.9999993443489075,
        0.9997923970222473,
        0.9999938011169434
      ],
      "min": [
        -0.9999998807907104,
        -0.9999999403953552,
        -0.9999996423721313
      ],
      "type": "VEC3"
    },
    {
      "bufferView": 1,
      "byteOffset": 4194048,
      "componentType": 5126,
      "count": 65532,
      "max": [
        0.9921420216560364,
        0.9981899857521057
      ],
      "min": [
        0.02258400060236454,
        0.0014720000326633453
      ],
      "type": "VEC2"
    },
    {
      "bufferView": 0,
      "byteOffset": 11232696,
      "componentType": 5125,
      "count": 352608,
      "type": "SCALAR"
    },
    {
      "bufferView": 2,
      "byteOffset": 14154912,
      "componentType": 5126,
      "count": 65532,
      "max": [
        48.11697006225586,
        75.69398498535156,
        74.19020080566406
      ],
      "min": [
        -65.65817260742188,
        -15.946404457092285,
        -31.7469425201416
      ],
      "type": "VEC3"
    },
    {
      "bufferView": 2,
      "byteOffset": 14941296,
      "componentType": 5126,
      "count": 65532,
      "max": [
        0.9999992251396179,
        0.9999922513961792,
        0.9999994039535522
      ],
      "min": [
        -0.9999991059303284,
        -1.0,
        -0.9999986886978149
      ],
      "type": "VEC3"
    },
    {
      "bufferView": 1,
      "byteOffset": 4718304,
      "componentType": 5126,
      "count": 65532,
      "max": [
        0.9670929908752441,
        0.9932270050048828
      ],
      "min": [
        0.011644000187516212,
        0.0012000000569969416
      ],
      "type": "VEC2"
    },
    {
      "bufferView": 0,
      "byteOffset": 12643128,
      "componentType": 5125,
      "count": 334839,
      "type": "SCALAR"
    },
    {
      "bufferView": 2,
      "byteOffset": 15727680,
      "componentType": 5126,
      "count": 65532,
      "max": [
        48.11695098876953,
        75.6221923828125,
        46.533084869384766
      ],
      "min": [
        -65.70913696289063,
        -30.109289169311523,
        -39.65696716308594
      ],
      "type": "VEC3"
    },
    {
      "bufferView": 2,
      "byteOffset": 16514064,
      "componentType": 5126,
      "count": 65532,
      "max": [
        0.9999999403953552,
        0.9998600482940674,
        0.9999998211860657
      ],
      "min": [
        -0.9999986290931702,
        -1.0,
        -0.9999998211860657
      ],
      "type": "VEC3"
    },
    {
      "bufferView": 1,
      "byteOffset": 5242560,
      "componentType": 5126,
      "count": 65532,
      "max": [
        0.9854289889335632,
        0.9981909990310669
      ],
      "min": [
        0.0030869999900460243,
        0.0005910000181756914
      ],
      "type": "VEC2"
    },
    {
      "bufferView": 0,
      "byteOffset": 13982484,
      "componentType": 5125,
      "count": 351309,
      "type": "SCALAR"
    },
    {
      "bufferView": 2,
      "byteOffset": 17300448,
      "componentType": 5126,
      "count": 65532,
      "max": [
        48.11695098876953,
        75.62085723876953,
        67.20270538330078
      ],
      "min": [
        -47.148414611816406,
        -65.1623764038086,
        -39.65696334838867
      ],
      "type": "VEC3"
    },
    {
      "bufferView": 2,
      "byteOffset": 18086832,
      "componentType": 5126,
      "count": 65532,
      "max": [
        0.9999962449073792,
        0.999910295009613,
        0.9999933838844299
      ],
      "min": [
        -0.9999967813491821,
        -0.9999998807907104,
        -0.9999987483024597
      ],
      "type": "VEC3"
    },
    {
      "bufferView": 1,
      "byteOffset": 5766816,
      "componentType": 5126,
      "count": 65532,
      "max": [
        0.9999790191650391,
        0.9975060224533081
      ],
      "min": [
        3.000000106112566e-06,
        1.700000029813964e-05
      ],
      "type": "VEC2"
    },
    {
      "bufferView": 0,
      "byteOffset": 15387720,
      "componentType": 5125,
      "count": 312303,
      "type": "SCALAR"
    },
    {
      "bufferView": 2,
      "byteOffset": 18873216,
      "componentType": 5126,
      "count": 65532,
      "max": [
        19.016767501831055,
        64.85551452636719,
        33.09562301635742
      ],
      "min": [
        -17.44203758239746,
        45.93498229980469,
        2.129995107650757
      ],
      "type": "VEC3"
    },
    {
      "bufferView": 2,
      "byteOffset": 19659600,
      "componentType": 5126,
      "count": 65532,
      "max": [
        0.9999998807907104,
        0.99924236536026,
        0.9999977350234985
      ],
      "min": [
        -0.9999867081642151,
        -1.0,
        -0.9999992847442627
      ],
      "type": "VEC3"
    },
    {
      "bufferView": 1,
      "byteOffset": 6291072,
      "componentType": 5126,
      "count": 65532,
      "max": [
        0.9986709952354431,
        0.9961900115013123
      ],
      "min": [
        0.0,
        0.004410000052303076
      ],
      "type": "VEC2"
    },
    {
      "bufferView": 0,
      "byteOffset": 16636932,
      "componentType": 5125,
      "count": 333822,
      "type": "SCALAR"
    },
    {
      "bufferView": 2,
      "byteOffset": 20445984,
      "componentType": 5126,
      "count": 65532,
      "max": [
        40.8052978515625,
        72.52849578857422,
        35.43441390991211
      ],
      "min": [
        -15.031145095825195,
        45.91759490966797,
        -13.71583366394043
      ],
      "type": "VEC3"
    },
    {
      "bufferView": 2,
      "byteOffset": 21232368,
      "componentType": 5126,
      "count": 65532,
      "max": [
        0.9999999403953552,
        0.9999881386756897,
        0.9999940395355225
      ],
      "min": [
        -0.9999998807907104,
        -1.0,
        -0.9999998211860657
      ],
      "type": "VEC3"
    },
    {
      "bufferView": 1,
      "byteOffset": 6815328,
      "componentType": 5126,
      "count": 65532,
      "max": [
        0.998511016368866,
        0.9952290058135986
      ],
      "min": [
        5.199999941396527e-05,
        0.0029009999707341194
      ],
      "type": "VEC2"
    },
    {
      "bufferView": 0,
      "byteOffset": 17972220,
      "componentType": 5125,
      "count": 334671,
      "type": "SCALAR"
    },
    {
      "bufferView": 2,
      "byteOffset": 22018752,
      "componentType": 5126,
      "count": 41551,
      "max": [
        48.1169548034668,
        75.26133728027344,
        35.41678237915039
      ],
      "min": [
        -24.323333740234375,
        45.8423957824707,
        -12.308356285095215
      ],
      "type": "VEC3"
    },
    {
      "bufferView": 2,
      "byteOffset": 22517364,
      "componentType": 5126,
      "count": 41551,
      "max": [
        0.9999993443489075,
        0.9999893307685852,
        0.9999998211860657
      ],
      "min": [
        -0.9999986290931702,
        -0.9999998211860657,
        -0.9999991655349731
      ],
      "type": "VEC3"
    },
    {
      "bufferView": 1,
      "byteOffset": 7339584,
      "componentType": 5126,
      "count": 41551,
      "max": [
        0.9960899949073792,
        0.9763190150260925
      ],
      "min": [
        0.0071669998578727245,
        0.000770999991800636
      ],
      "type": "VEC2"
    },
    {
      "bufferView": 0,
      "byteOffset": 19310904,
      "componentType": 5125,
      "count": 189081,
      "type": "SCALAR"
    }
  ],
  "asset": {
    "extras": {
      "author": "artfletch (https://sketchfab.com/artfletch)",
      "license": "CC-BY-4.0 (http://creativecommons.org/licenses/by/4.0/)",
      "source": "https://sketchfab.com/3d-models/burdett-coutts-fountain-b0ec2ec4e15143e3afe7b4a002bc6ecb",
      "title": "Burdett-Coutts Fountain"
    },
    "generator": "Sketchfab-12.67.0",
    "version": "2.0"
  },
  "bufferViews": [
    {
      "buffer": 0,
      "byteLength": 20067228,
      "name": "floatBufferViews",
      "target": 34963
    },
    {
      "buffer": 0,
      "byteLength": 7671992,
      "byteOffset": 20067228,
      "byteStride": 8,
      "name": "floatBufferViews",
      "target": 34962
    },
    {
      "buffer": 0,
      "byteLength": 23015976,
      "byteOffset": 27739220,
      "byteStride": 12,
      "name": "floatBufferViews",
      "target": 34962
    }
  ],
  "buffers": [
    {
      "byteLength": 50755196,
      "uri": "scene.bin"
    }
  ],
  "extensionsUsed": [
    "KHR_materials_unlit"
  ],
  "images": [
    {
      "uri": "textures/DrinkingFountainCouttsVictoriaPark_1_6m_8k_01_DrinkingFountainCouttsVictoriaPark_1_6m_8k_01_baseColor.jpeg"
    }
  ],
  "materials": [
    {
      "doubleSided": true,
      "extensions": {
        "KHR_materials_unlit": {}
      },
      "name": "DrinkingFountainCouttsVictoriaPark_1_6m_8k_01_DrinkingFountainCouttsVictoriaPark_1_6m_8k_01",
      "pbrMetallicRoughness": {
        "baseColorTexture": {
          "index": 0
        },
        "metallicFactor": 0.0
      }
    }
  ],
  "meshes": [
    {
      "name": "Object_0",
      "primitives": [
        {
          "attributes": {
            "NORMAL": 1,
            "POSITION": 0,
            "TEXCOORD_0": 2
          },
          "indices": 3,
          "material": 0,
          "mode": 4
        }
      ]
    },
    {
      "name": "Object_1",
      "primitives": [
        {
          "attributes": {
            "NORMAL": 5,
            "POSITION": 4,
            "TEXCOORD_0": 6
          },
          "indices": 7,
          "material": 0,
          "mode": 4
        }
      ]
    },
    {
      "name": "Object_2",
      "primitives": [
        {
          "attributes": {
            "NORMAL": 9,
            "POSITION": 8,
            "TEXCOORD_0": 10
          },
          "indices": 11,
          "material": 0,
          "mode": 4
        }
      ]
    },
    {
      "name": "Object_3",
      "primitives": [
        {
          "attributes": {
            "NORMAL": 13,
            "POSITION": 12,
            "TEXCOORD_0": 14
          },
          "indices": 15,
          "material": 0,
          "mode": 4
        }
      ]
    },
    {
      "name": "Object_4",
      "primitives": [
        {
          "attributes": {
            "NORMAL": 17,
            "POSITION": 16,
            "TEXCOORD_0": 18
          },
          "indices": 19,
          "material": 0,
          "mode": 4
        }
      ]
    },
    {
      "name": "Object_5",
      "primitives": [
        {
          "attributes": {
            "NORMAL": 21,
            "POSITION": 20,
            "TEXCOORD_0": 22
          },
          "indices": 23,
          "material": 0,
          "mode": 4
        }
      ]
    },
    {
      "name": "Object_6",
      "primitives": [
        {
          "attributes": {
            "NORMAL": 25,
            "POSITION": 24,
            "TEXCOORD_0": 26
          },
          "indices": 27,
          "material": 0,
          "mode": 4
        }
      ]
    },
    {
      "name": "Object_7",
      "primitives": [
        {
          "attributes": {
            "NORMAL": 29,
            "POSITION": 28,
            "TEXCOORD_0": 30
          },
          "indices": 31,
          "material": 0,
          "mode": 4
        }
      ]
    },
    {
      "name": "Object_8",
      "primitives": [
        {
          "attributes": {
            "NORMAL": 33,
            "POSITION": 32,
            "TEXCOORD_0": 34
          },
          "indices": 35,
          "material": 0,
          "mode": 4
        }
      ]
    },
    {
      "name": "Object_9",
      "primitives": [
        {
          "attributes": {
            "NORMAL": 37,
            "POSITION": 36,
            "TEXCOORD_0": 38
          },
          "indices": 39,
          "material": 0,
          "mode": 4
        }
      ]
    },
    {
      "name": "Object_10",
      "primitives": [
        {
          "attributes": {
            "NORMAL": 41,
            "POSITION": 40,
            "TEXCOORD_0": 42
          },
          "indices": 43,
          "material": 0,
          "mode": 4
        }
      ]
    },
    {
      "name": "Object_11",
      "primitives": [
        {
          "attributes": {
            "NORMAL": 45,
            "POSITION": 44,
            "TEXCOORD_0": 46
          },
          "indices": 47,
          "material": 0,
          "mode": 4
        }
      ]
    },
    {
      "name": "Object_12",
      "primitives": [
        {
          "attributes": {
            "NORMAL": 49,
            "POSITION": 48,
            "TEXCOORD_0": 50
          },
          "indices": 51,
          "material": 0,
          "mode": 4
        }
      ]
    },
    {
      "name": "Object_13",
      "primitives": [
        {
          "attributes": {
            "NORMAL": 53,
            "POSITION": 52,
            "TEXCOORD_0": 54
          },
          "indices": 55,
          "material": 0,
          "mode": 4
        }
      ]
    },
    {
      "name": "Object_14",
      "primitives": [
        {
          "attributes": {
            "NORMAL": 57,
            "POSITION": 56,
            "TEXCOORD_0": 58
          },
          "indices": 59,
          "material": 0,
          "mode": 4
        }
      ]
    }
  ],
  "nodes": [
    {
      "children": [
        1
      ],
      "matrix": [
        1.0,
        0.0,
        0.0,
        0.0,
        0.0,
        -1.0,
        -4.440892098500626e-16,
        0.0,
        0.0,
        4.440892098500626e-16,
        -1.0,
        0.0,
        0.0,
        24.866659164428707,
        9.666685104370123,
        1.0
      ],
      "name": "Sketchfab_model"
    },
    {
      "children": [
        2,
        3,
        4,
        5,
        6,
        7,
        8,
        9,
        10,
        11,
        12,
        13,
        14,
        15,
        16
      ],
      "name": "DrinkingFountainCouttsVictoriaPark01.obj.cleaner.materialmerger.gles"
    },
    {
      "mesh": 0,
      "name": "Object_2"
    },
    {
      "mesh": 1,
      "name": "Object_3"
    },
    {
      "mesh": 2,
      "name": "Object_4"
    },
    {
      "mesh": 3,
      "name": "Object_5"
    },
    {
      "mesh": 4,
      "name": "Object_6"
    },
    {
      "mesh": 5,
      "name": "Object_7"
    },
    {
      "mesh": 6,
      "name": "Object_8"
    },
    {
      "mesh": 7,
      "name": "Object_9"
    },
    {
      "mesh": 8,
      "name": "Object_10"
    },
    {
      "mesh": 9,
      "name": "Object_11"
    },
    {
      "mesh": 10,
      "name": "Object_12"
    },
    {
      "mesh": 11,
      "name": "Object_13"
    },
    {
      "mesh": 12,
      "name": "Object_14"
    },
    {
      "mesh": 13,
      "name": "Object_15"
    },
    {
      "mesh": 14,
      "name": "Object_16"
    }
  ],
  "samplers": [
    {
      "magFilter": 9729,
      "minFilter": 9987,
      "wrapS": 10497,
      "wrapT": 10497
    }
  ],
  "scene": 0,
  "scenes": [
    {
      "name": "Sketchfab_Scene",
      "nodes": [
        0
      ]
    }
  ],
  "textures": [
    {
      "sampler": 0,
      "source": 0
    }
  ]
}
